<mxfile host="app.diagrams.net" modified="2023-02-05T20:03:51.337Z" agent="5.0 (X11)" version="20.8.0" etag="Rxc1LelKtNctAOe6kLbI" type="github">
  <diagram id="8HzEb5WCuWgLSiuGVbn9" name="Page-1">
    <mxGraphModel dx="906" dy="1476" grid="1" gridSize="10" guides="1" tooltips="1" connect="1" arrows="1" fold="1" page="1" pageScale="1" pageWidth="850" pageHeight="1100" math="0" shadow="0">
      <root>
        <mxCell id="0" />
        <mxCell id="1" parent="0" />
        <mxCell id="0PpGyIOEij2_zgUjwJkX-17" style="edgeStyle=orthogonalEdgeStyle;rounded=0;orthogonalLoop=1;jettySize=auto;html=1;entryX=0.5;entryY=0;entryDx=0;entryDy=0;exitX=0.5;exitY=1;exitDx=0;exitDy=0;" edge="1" parent="1" source="0PpGyIOEij2_zgUjwJkX-1" target="0PpGyIOEij2_zgUjwJkX-2">
          <mxGeometry relative="1" as="geometry">
            <Array as="points">
              <mxPoint x="400" y="160" />
              <mxPoint x="100" y="160" />
            </Array>
          </mxGeometry>
        </mxCell>
        <mxCell id="0PpGyIOEij2_zgUjwJkX-22" style="edgeStyle=orthogonalEdgeStyle;rounded=0;orthogonalLoop=1;jettySize=auto;html=1;entryX=0.5;entryY=0;entryDx=0;entryDy=0;" edge="1" parent="1" source="0PpGyIOEij2_zgUjwJkX-1" target="0PpGyIOEij2_zgUjwJkX-3">
          <mxGeometry relative="1" as="geometry">
            <Array as="points">
              <mxPoint x="400" y="160" />
              <mxPoint x="260" y="160" />
            </Array>
          </mxGeometry>
        </mxCell>
        <mxCell id="0PpGyIOEij2_zgUjwJkX-23" style="edgeStyle=orthogonalEdgeStyle;rounded=0;orthogonalLoop=1;jettySize=auto;html=1;entryX=0.5;entryY=0;entryDx=0;entryDy=0;" edge="1" parent="1" source="0PpGyIOEij2_zgUjwJkX-1" target="0PpGyIOEij2_zgUjwJkX-4">
          <mxGeometry relative="1" as="geometry">
            <Array as="points">
              <mxPoint x="400" y="160" />
              <mxPoint x="420" y="160" />
            </Array>
          </mxGeometry>
        </mxCell>
        <mxCell id="0PpGyIOEij2_zgUjwJkX-24" style="edgeStyle=orthogonalEdgeStyle;rounded=0;orthogonalLoop=1;jettySize=auto;html=1;entryX=0.5;entryY=0;entryDx=0;entryDy=0;" edge="1" parent="1" source="0PpGyIOEij2_zgUjwJkX-1" target="0PpGyIOEij2_zgUjwJkX-5">
          <mxGeometry relative="1" as="geometry">
            <Array as="points">
              <mxPoint x="400" y="160" />
              <mxPoint x="580" y="160" />
            </Array>
          </mxGeometry>
        </mxCell>
        <mxCell id="0PpGyIOEij2_zgUjwJkX-1" value="Главная программа" style="rounded=0;whiteSpace=wrap;html=1;" vertex="1" parent="1">
          <mxGeometry x="340" y="70" width="120" height="60" as="geometry" />
        </mxCell>
        <mxCell id="0PpGyIOEij2_zgUjwJkX-18" style="edgeStyle=orthogonalEdgeStyle;rounded=0;orthogonalLoop=1;jettySize=auto;html=1;entryX=0;entryY=0.5;entryDx=0;entryDy=0;" edge="1" parent="1" source="0PpGyIOEij2_zgUjwJkX-2" target="0PpGyIOEij2_zgUjwJkX-10">
          <mxGeometry relative="1" as="geometry">
            <Array as="points">
              <mxPoint x="10" y="230" />
              <mxPoint x="10" y="580" />
            </Array>
          </mxGeometry>
        </mxCell>
        <mxCell id="0PpGyIOEij2_zgUjwJkX-19" style="edgeStyle=orthogonalEdgeStyle;rounded=0;orthogonalLoop=1;jettySize=auto;html=1;entryX=0;entryY=0.5;entryDx=0;entryDy=0;" edge="1" parent="1" source="0PpGyIOEij2_zgUjwJkX-2" target="0PpGyIOEij2_zgUjwJkX-7">
          <mxGeometry relative="1" as="geometry">
            <Array as="points">
              <mxPoint x="10" y="230" />
              <mxPoint x="10" y="320" />
            </Array>
          </mxGeometry>
        </mxCell>
        <mxCell id="0PpGyIOEij2_zgUjwJkX-20" style="edgeStyle=orthogonalEdgeStyle;rounded=0;orthogonalLoop=1;jettySize=auto;html=1;entryX=0;entryY=0.5;entryDx=0;entryDy=0;" edge="1" parent="1" source="0PpGyIOEij2_zgUjwJkX-2" target="0PpGyIOEij2_zgUjwJkX-8">
          <mxGeometry relative="1" as="geometry">
            <Array as="points">
              <mxPoint x="10" y="230" />
              <mxPoint x="10" y="400" />
            </Array>
          </mxGeometry>
        </mxCell>
        <mxCell id="0PpGyIOEij2_zgUjwJkX-21" style="edgeStyle=orthogonalEdgeStyle;rounded=0;orthogonalLoop=1;jettySize=auto;html=1;entryX=0;entryY=0.5;entryDx=0;entryDy=0;" edge="1" parent="1" source="0PpGyIOEij2_zgUjwJkX-2" target="0PpGyIOEij2_zgUjwJkX-9">
          <mxGeometry relative="1" as="geometry">
            <Array as="points">
              <mxPoint x="10" y="230" />
              <mxPoint x="10" y="490" />
            </Array>
          </mxGeometry>
        </mxCell>
        <mxCell id="0PpGyIOEij2_zgUjwJkX-2" value="&lt;div&gt;Пациент&lt;/div&gt;" style="rounded=0;whiteSpace=wrap;html=1;" vertex="1" parent="1">
          <mxGeometry x="40" y="200" width="120" height="60" as="geometry" />
        </mxCell>
        <mxCell id="0PpGyIOEij2_zgUjwJkX-25" style="edgeStyle=orthogonalEdgeStyle;rounded=0;orthogonalLoop=1;jettySize=auto;html=1;" edge="1" parent="1" source="0PpGyIOEij2_zgUjwJkX-3" target="0PpGyIOEij2_zgUjwJkX-11">
          <mxGeometry relative="1" as="geometry" />
        </mxCell>
        <mxCell id="0PpGyIOEij2_zgUjwJkX-3" value="Врач" style="rounded=0;whiteSpace=wrap;html=1;" vertex="1" parent="1">
          <mxGeometry x="200" y="200" width="120" height="60" as="geometry" />
        </mxCell>
        <mxCell id="0PpGyIOEij2_zgUjwJkX-27" style="edgeStyle=orthogonalEdgeStyle;rounded=0;orthogonalLoop=1;jettySize=auto;html=1;" edge="1" parent="1" source="0PpGyIOEij2_zgUjwJkX-4" target="0PpGyIOEij2_zgUjwJkX-13">
          <mxGeometry relative="1" as="geometry" />
        </mxCell>
        <mxCell id="0PpGyIOEij2_zgUjwJkX-4" value="Администратор" style="rounded=0;whiteSpace=wrap;html=1;" vertex="1" parent="1">
          <mxGeometry x="360" y="200" width="120" height="60" as="geometry" />
        </mxCell>
        <mxCell id="0PpGyIOEij2_zgUjwJkX-28" style="edgeStyle=orthogonalEdgeStyle;rounded=0;orthogonalLoop=1;jettySize=auto;html=1;entryX=1;entryY=0.5;entryDx=0;entryDy=0;" edge="1" parent="1" source="0PpGyIOEij2_zgUjwJkX-5" target="0PpGyIOEij2_zgUjwJkX-16">
          <mxGeometry relative="1" as="geometry">
            <Array as="points">
              <mxPoint x="660" y="230" />
              <mxPoint x="660" y="480" />
            </Array>
          </mxGeometry>
        </mxCell>
        <mxCell id="0PpGyIOEij2_zgUjwJkX-29" style="edgeStyle=orthogonalEdgeStyle;rounded=0;orthogonalLoop=1;jettySize=auto;html=1;entryX=1;entryY=0.5;entryDx=0;entryDy=0;" edge="1" parent="1" source="0PpGyIOEij2_zgUjwJkX-5" target="0PpGyIOEij2_zgUjwJkX-14">
          <mxGeometry relative="1" as="geometry">
            <Array as="points">
              <mxPoint x="660" y="230" />
              <mxPoint x="660" y="320" />
            </Array>
          </mxGeometry>
        </mxCell>
        <mxCell id="0PpGyIOEij2_zgUjwJkX-30" style="edgeStyle=orthogonalEdgeStyle;rounded=0;orthogonalLoop=1;jettySize=auto;html=1;entryX=1;entryY=0.5;entryDx=0;entryDy=0;" edge="1" parent="1" source="0PpGyIOEij2_zgUjwJkX-5" target="0PpGyIOEij2_zgUjwJkX-15">
          <mxGeometry relative="1" as="geometry">
            <Array as="points">
              <mxPoint x="660" y="230" />
              <mxPoint x="660" y="400" />
            </Array>
          </mxGeometry>
        </mxCell>
        <mxCell id="0PpGyIOEij2_zgUjwJkX-5" value="Рукводоство" style="rounded=0;whiteSpace=wrap;html=1;" vertex="1" parent="1">
          <mxGeometry x="520" y="200" width="120" height="60" as="geometry" />
        </mxCell>
        <mxCell id="0PpGyIOEij2_zgUjwJkX-7" value="Личный архив справок" style="rounded=0;whiteSpace=wrap;html=1;" vertex="1" parent="1">
          <mxGeometry x="40" y="290" width="120" height="60" as="geometry" />
        </mxCell>
        <mxCell id="0PpGyIOEij2_zgUjwJkX-8" value="Информация о больнице" style="rounded=0;whiteSpace=wrap;html=1;" vertex="1" parent="1">
          <mxGeometry x="40" y="370" width="120" height="60" as="geometry" />
        </mxCell>
        <mxCell id="0PpGyIOEij2_zgUjwJkX-9" value="Информация о лечащем враче" style="rounded=0;whiteSpace=wrap;html=1;" vertex="1" parent="1">
          <mxGeometry x="40" y="460" width="120" height="60" as="geometry" />
        </mxCell>
        <mxCell id="0PpGyIOEij2_zgUjwJkX-10" value="Информация о справке" style="rounded=0;whiteSpace=wrap;html=1;" vertex="1" parent="1">
          <mxGeometry x="40" y="550" width="120" height="60" as="geometry" />
        </mxCell>
        <mxCell id="0PpGyIOEij2_zgUjwJkX-11" value="Создать и подписать справку" style="rounded=0;whiteSpace=wrap;html=1;" vertex="1" parent="1">
          <mxGeometry x="200" y="290" width="120" height="60" as="geometry" />
        </mxCell>
        <mxCell id="0PpGyIOEij2_zgUjwJkX-13" value="Изменить данные справки, больницы, пациента, врача" style="rounded=0;whiteSpace=wrap;html=1;" vertex="1" parent="1">
          <mxGeometry x="360" y="290" width="120" height="60" as="geometry" />
        </mxCell>
        <mxCell id="0PpGyIOEij2_zgUjwJkX-14" value="Получить список больниц" style="rounded=0;whiteSpace=wrap;html=1;" vertex="1" parent="1">
          <mxGeometry x="520" y="290" width="120" height="60" as="geometry" />
        </mxCell>
        <mxCell id="0PpGyIOEij2_zgUjwJkX-15" value="Получить список врачей" style="rounded=0;whiteSpace=wrap;html=1;" vertex="1" parent="1">
          <mxGeometry x="520" y="370" width="120" height="60" as="geometry" />
        </mxCell>
        <mxCell id="0PpGyIOEij2_zgUjwJkX-16" value="Получить список справок" style="rounded=0;whiteSpace=wrap;html=1;" vertex="1" parent="1">
          <mxGeometry x="520" y="450" width="120" height="60" as="geometry" />
        </mxCell>
      </root>
    </mxGraphModel>
  </diagram>
</mxfile>
